HIERARCHY
ROOT Model_Hips
{
	OFFSET 0.000000 96.915077 0.000000
	CHANNELS 6 Xposition Yposition Zposition Xrotation Yrotation Zrotation
	JOINT Model_Spine
	{
		OFFSET 0.000000 11.137703 -1.289900
		CHANNELS 3 Xrotation Yrotation Zrotation
		JOINT Model_Spine1
		{
			OFFSET 0.000000 12.993942 -1.504922
			CHANNELS 3 Xrotation Yrotation Zrotation
			JOINT Model_Spine2
			{
				OFFSET 0.000000 14.850220 -1.719911
				CHANNELS 3 Xrotation Yrotation Zrotation
				JOINT Model_Neck
				{
					OFFSET 0.000000 16.706543 -1.934903
					CHANNELS 3 Xrotation Yrotation Zrotation
					JOINT Model_Head
					{
						OFFSET 0.000000 10.471298 2.002100
						CHANNELS 3 Xrotation Yrotation Zrotation
						JOINT Model_HeadTop_End
						{
							OFFSET 0.000000 20.842606 3.985100
							CHANNELS 3 Xrotation Yrotation Zrotation
							End Site
							{
								OFFSET 0.000000 21.220154 0.000000
							}
						}
					}
				}
				JOINT Model_LeftShoulder
				{
					OFFSET 7.008500 14.768600 -1.919946
					CHANNELS 3 Xrotation Yrotation Zrotation
					JOINT Model_LeftArm
					{
						OFFSET 14.126271 -3.718048 0.029937
						CHANNELS 3 Xrotation Yrotation Zrotation
						JOINT Model_LeftForeArm
						{
							OFFSET 28.282801 0.000000 0.000000
							CHANNELS 3 Xrotation Yrotation Zrotation
							JOINT Model_LeftHand
							{
								OFFSET 26.204689 0.000000 0.000000
								CHANNELS 3 Xrotation Yrotation Zrotation
								End Site
								{
									OFFSET 26.204704 0.000000 0.000000
								}
							}
						}
					}
				}
				JOINT Model_RightShoulder
				{
					OFFSET -7.008500 14.768555 -1.949840
					CHANNELS 3 Xrotation Yrotation Zrotation
					JOINT Model_RightArm
					{
						OFFSET -14.126281 -3.718018 -0.029932
						CHANNELS 3 Xrotation Yrotation Zrotation
						JOINT Model_RightForeArm
						{
							OFFSET -28.283798 0.000000 -0.000001
							CHANNELS 3 Xrotation Yrotation Zrotation
							JOINT Model_RightHand
							{
								OFFSET -26.204193 0.000000 -0.000001
								CHANNELS 3 Xrotation Yrotation Zrotation
								End Site
								{
									OFFSET -26.204208 0.000000 -0.000001
								}
							}
						}
					}
				}
			}
		}
	}
	JOINT Model_LeftUpLeg
	{
		OFFSET 8.327700 -6.193199 -0.402800
		CHANNELS 3 Xrotation Yrotation Zrotation
		JOINT Model_LeftLeg
		{
			OFFSET 0.735802 -42.108742 -0.610721
			CHANNELS 3 Xrotation Yrotation Zrotation
			JOINT Model_LeftFoot
			{
				OFFSET -0.735806 -36.833748 -0.172876
				CHANNELS 3 Xrotation Yrotation Zrotation
				JOINT Model_LeftToeBase
				{
					OFFSET -0.565857 -11.977769 16.297714
					CHANNELS 3 Xrotation Yrotation Zrotation
					JOINT Model_LeftToe_End
					{
						OFFSET -0.111712 -0.312793 7.857784
						CHANNELS 3 Xrotation Yrotation Zrotation
						End Site
						{
							OFFSET -0.111712 -0.312793 7.857784
						}
					}
				}
			}
		}
	}
	JOINT Model_RightUpLeg
	{
		OFFSET -8.327700 -6.193199 -0.516500
		CHANNELS 3 Xrotation Yrotation Zrotation
		JOINT Model_RightLeg
		{
			OFFSET -0.735785 -42.108738 -0.434061
			CHANNELS 3 Xrotation Yrotation Zrotation
			JOINT Model_RightFoot
			{
				OFFSET 0.735776 -36.833748 -0.021630
				CHANNELS 3 Xrotation Yrotation Zrotation
				JOINT Model_RightToeBase
				{
					OFFSET 0.565817 -11.977745 15.903093
					CHANNELS 3 Xrotation Yrotation Zrotation
					JOINT Model_RightToe_End
					{
						OFFSET 0.111702 -0.312791 7.811342
						CHANNELS 3 Xrotation Yrotation Zrotation
						End Site
						{
							OFFSET 0.111702 -0.312791 7.811342
						}
					}
				}
			}
		}
	}
}
MOTION
Frames: 13
Frame Time: 0.016667
0.000182 95.935509 0.333447 -2.259410 -0.324417 -0.528734 1.788441 -1.285752 0.494170 3.579705 -2.533197 0.673626 3.579707 -2.533200 0.673625 -0.813695 0.452735 -0.065530 -0.813699 0.452736 -0.065530 0.000000 -0.000000 -0.000000 0.442702 -8.235238 -13.151931 -0.624796 -8.808455 -59.472274 19.132393 -19.316369 6.827590 -0.000003 -0.000001 0.000001 0.662829 2.643821 20.149058 -3.947865 -2.327089 62.260323 16.631080 11.939504 -3.785998 -0.000001 -0.000001 -0.000001 -19.169973 6.267201 -1.134572 61.462154 19.827991 1.061493 1.713888 -0.132049 5.346845 -21.660879 5.067944 -15.505902 -0.000000 0.000002 0.000001 -8.884520 -2.058932 5.605395 21.915594 -6.568385 -0.333679 -12.905006 0.382591 -3.751126 3.382029 0.000004 0.000001 0.000000 0.000000 0.000000 
0.048593 96.012680 1.997204 -1.567118 -0.910544 0.003646 1.698646 -1.131610 0.393447 3.399155 -2.244546 0.519264 3.399153 -2.244543 0.519263 -0.934245 0.597259 -0.143496 -0.934243 0.597258 -0.143496 0.000000 0.000000 0.000000 0.446007 -7.558421 -13.379005 0.722449 -8.458782 -59.986130 20.047254 -18.841543 7.002155 -0.000003 0.000000 -0.000002 0.635152 2.874579 19.911873 -4.197920 -2.062430 62.168990 17.001611 11.809718 -3.837536 0.000001 0.000001 0.000001 -21.894175 5.719882 -2.382743 57.941451 19.285398 0.956275 0.220306 -0.217857 5.912229 -21.982428 4.550665 -13.111218 -0.000004 -0.000002 0.000000 -8.373484 -2.480238 4.909032 21.729793 -5.411441 -0.340579 -13.449581 0.396418 -4.008847 3.212376 -0.000006 -0.000001 0.000000 0.000000 0.000000 
0.086597 96.036667 3.671208 -0.760450 -1.364670 0.516974 1.595622 -0.995635 0.293232 3.192396 -1.986970 0.372388 3.192396 -1.986971 0.372388 -1.104804 0.746871 -0.211345 -1.104802 0.746871 -0.211346 0.000000 0.000000 -0.000000 0.453650 -6.865023 -13.602422 2.120180 -7.957514 -60.494425 20.878789 -18.418041 7.161249 -0.000004 0.000000 0.000000 0.618878 3.005094 19.727108 -4.385743 -1.735786 62.066100 16.935365 11.699260 -3.788181 -0.000000 -0.000000 -0.000000 -24.561073 5.156769 -3.528946 54.135598 18.331855 0.902636 -1.968634 -0.340830 6.442578 -17.003469 2.924092 -10.938782 -0.000001 -0.000000 -0.000000 -8.091909 -2.872255 4.268971 21.698659 -4.356579 -0.343342 -13.807877 0.469047 -4.464771 2.356157 -0.009380 -0.187929 0.000000 0.000001 -0.000000 
0.121760 96.017448 5.351987 0.091638 -1.681141 0.954296 1.487110 -0.875107 0.201741 2.974961 -1.753470 0.248679 2.974963 -1.753471 0.248679 -1.292215 0.898822 -0.259343 -1.292218 0.898823 -0.259344 0.000000 -0.000000 -0.000000 0.465824 -6.171596 -13.815256 3.536977 -7.376979 -61.036428 21.681285 -18.013594 7.311089 0.000003 0.000000 -0.000002 0.608262 3.082275 19.567911 -4.538639 -1.374256 61.957192 16.627797 11.600167 -3.684736 0.000000 0.000000 0.000001 -26.625022 4.588513 -4.502402 48.754327 16.530315 0.868039 -2.714619 -0.438849 7.405428 -11.562061 1.674929 -9.055374 0.000000 0.000003 -0.000000 -7.916060 -3.163718 3.757492 21.797712 -3.420988 -0.342195 -14.234937 0.569638 -5.089209 1.010921 -0.016809 1.100246 0.000001 0.000000 0.000000 
0.164684 95.965515 7.040423 0.906137 -1.878820 1.261550 1.382697 -0.761589 0.128001 2.766014 -1.526018 0.164289 2.766016 -1.526017 0.164289 -1.463088 1.049754 -0.278181 -1.463084 1.049755 -0.278180 0.000000 -0.000000 -0.000000 0.481986 -5.486107 -14.011109 4.981209 -6.717198 -61.607528 22.463941 -17.621389 7.452985 0.000002 -0.000000 0.000001 0.602855 3.105012 19.434687 -4.654899 -0.979211 61.842377 16.077249 11.511633 -3.528022 -0.000000 -0.000000 0.000000 -28.017801 4.068129 -5.247725 42.089705 14.275140 0.838042 -2.347435 -0.485930 8.292307 -6.176853 0.556705 -5.313988 0.000001 0.000000 -0.000000 -7.721126 -3.294024 3.385859 22.187929 -2.635509 -0.337745 -15.582523 0.688424 -5.452406 0.700833 -0.009994 0.763207 0.000000 -0.000000 0.000000 
0.224531 95.889198 8.736786 1.615174 -1.982479 1.404270 1.289337 -0.643844 0.081158 2.579351 -1.283130 0.129268 2.579349 -1.283131 0.129269 -1.592311 1.195519 -0.261752 -1.592315 1.195519 -0.261753 -0.000000 0.000000 -0.000000 0.501515 -4.819589 -14.183672 6.442974 -5.993707 -62.204971 23.235713 -17.231263 7.585443 0.000002 0.000001 -0.000001 0.602386 3.075017 19.325832 -4.735359 -0.559291 61.721605 15.311450 11.429186 -3.324690 0.000001 0.000000 0.000000 -28.931042 3.669140 -5.781322 35.145182 12.025932 0.779115 -2.499810 -0.528286 8.630404 0.349206 0.000001 -0.000000 0.000001 -0.000000 -0.000000 -7.441809 -3.273852 3.273853 22.660421 -2.201147 -0.333079 -16.999929 0.900845 -6.221639 0.469131 -0.004502 0.511770 0.000000 -0.000000 0.000000 
0.310216 95.790627 10.450060 2.182741 -2.002605 1.373309 1.209683 -0.511633 0.071102 2.420066 -1.010080 0.144315 2.420067 -1.010082 0.144315 -1.671428 1.332582 -0.210173 -1.671426 1.332583 -0.210174 0.000001 0.000000 -0.000000 0.523592 -4.184035 -14.328110 7.897225 -5.232864 -62.824374 24.005086 -16.830175 7.704278 0.000001 0.000000 0.000000 0.606528 2.995960 19.239769 -4.783036 -0.131637 61.593990 14.387554 11.344188 -3.087103 -0.000000 -0.000001 0.000000 -29.096753 3.357998 -6.132143 27.301784 9.963897 0.659402 -2.008973 -0.486712 8.390768 0.203625 -0.000002 0.000000 0.000000 -0.000000 -0.000000 -6.901892 -3.129755 3.382997 22.923086 -2.182669 -0.329961 -18.345369 1.116825 -7.032745 0.398962 -0.003292 0.436680 0.000000 -0.000000 0.000000 
0.421766 95.674164 12.192285 2.602066 -1.921445 1.203553 1.144174 -0.365298 0.084307 2.288985 -0.705317 0.201780 2.288985 -0.705315 0.201778 -1.711920 1.459269 -0.130943 -1.711927 1.459268 -0.130941 -0.000000 0.000000 -0.000000 0.546674 -3.590029 -14.441883 9.311821 -4.465005 -63.458345 24.780924 -16.402752 7.803626 0.000001 -0.000001 -0.000000 0.614316 2.873479 19.175312 -4.802238 0.277178 61.457059 13.390430 11.244991 -2.833151 -0.000000 -0.000001 0.000000 -28.104268 3.072477 -6.485454 17.785551 8.450927 0.636651 -0.377348 -0.328331 7.475457 -0.853661 -0.000000 -0.000002 0.000000 0.000000 -0.000000 -6.077866 -2.931971 3.656702 22.941653 -2.602148 -0.331161 -19.610141 1.310589 -7.799349 0.114567 -0.014317 0.129128 0.000000 0.000000 0.000000 
0.552412 95.522820 13.983895 2.880934 -1.707105 0.923179 1.094592 -0.208386 0.121855 2.189526 -0.379950 0.289877 2.189526 -0.379951 0.289876 -1.739548 1.575452 -0.037818 -1.739558 1.575451 -0.037818 0.000001 -0.000000 -0.000000 0.570448 -3.045662 -14.524098 10.656466 -3.717396 -64.098108 25.571865 -15.933634 7.876811 0.000003 0.000000 0.000000 0.625893 2.714107 19.131684 -4.796129 0.630928 61.306610 12.424642 11.120242 -2.585242 -0.000001 0.000000 0.000001 -27.595211 2.834090 -6.797281 10.333280 8.051491 0.618451 0.383414 -0.227098 5.843621 -2.791286 0.000002 -0.000000 -0.000000 -0.000000 -0.000000 -5.034878 -2.776641 4.058127 22.870414 -3.409998 -0.334947 -20.890852 1.485877 -8.561254 -0.512391 0.000308 -0.279231 0.000000 0.000000 0.000000 
0.697859 95.328346 15.835256 3.028575 -1.323878 0.568566 1.065920 -0.050218 0.172811 2.131600 -0.052703 0.398169 2.131602 -0.052703 0.398169 -1.784957 1.683052 0.051401 -1.784957 1.683052 0.051402 0.000000 0.000000 0.000000 0.593321 -2.554818 -14.573781 11.910116 -3.008085 -64.737018 26.382688 -15.411939 7.917466 -0.000005 -0.000000 0.000000 0.639948 2.525757 19.110670 -4.763295 0.885762 61.137932 11.597059 10.964532 -2.366630 0.000000 -0.000000 -0.000000 -26.146782 2.518734 -7.217441 2.175553 8.724549 0.651695 1.656473 -0.114899 4.194712 -5.248831 -0.000000 0.000002 0.000001 -0.000000 0.000001 -3.874728 -2.750161 4.504768 22.903670 -4.415549 -0.331054 -22.147986 1.562670 -9.125236 -1.980989 0.033049 -0.172182 -0.000000 0.000001 -0.000000 
0.841114 95.072647 17.766193 3.052163 -0.750109 0.148804 1.063270 0.102492 0.243289 2.125631 0.257827 0.521154 2.125631 0.257827 0.521154 -1.870406 1.785710 0.119085 -1.870411 1.785711 0.119084 0.000000 0.000000 0.000000 0.614559 -2.117251 -14.586965 13.065322 -2.342127 -65.373755 27.209165 -14.836378 7.920769 -0.000001 0.000000 0.000001 0.655926 2.316080 19.114360 -4.694703 0.995833 60.948408 10.993802 10.783986 -2.197343 -0.000000 0.000000 -0.000000 -27.668707 2.734113 -7.600477 2.126471 10.467701 0.745540 -1.164250 -0.131662 2.259985 -7.592863 -0.000004 -0.000003 -0.000002 -0.000001 -0.000001 -3.454026 -2.954983 4.754428 24.648529 -5.268610 -0.306895 -23.065696 1.304388 -8.196242 -3.254665 0.056078 0.496939 0.000000 0.000000 0.000001 
0.972525 94.767975 19.775463 2.960322 0.017902 -0.319677 1.086995 0.241292 0.322016 2.172235 0.540196 0.658479 2.172236 0.540196 0.658480 -1.995513 1.889001 0.149700 -1.995493 1.889001 0.149702 0.000001 0.000000 0.000000 0.634129 -1.728173 -14.558255 14.129194 -1.711267 -66.013348 28.033357 -14.218459 7.884468 0.000002 -0.000001 -0.000000 0.673901 2.093145 19.146504 -4.573625 0.921628 60.740210 10.660164 10.599720 -2.089475 -0.000000 0.000000 0.000001 -28.404271 2.817562 -8.101258 2.078556 12.728571 0.865834 -3.786833 -0.032482 1.052003 -9.129027 0.000000 0.000004 -0.000001 0.000001 -0.000001 -2.761218 -3.428546 5.243637 26.388764 -6.334840 -0.269872 -24.380896 1.323212 -8.523221 -2.913113 -0.133956 2.764327 0.000000 -0.000000 0.000000 
1.095858 94.425896 21.863596 2.765357 0.950769 -0.837644 1.129319 0.366306 0.409307 2.255860 0.794315 0.811204 2.255858 0.794314 0.811204 -2.139053 1.997747 0.139222 -2.139055 1.997748 0.139222 0.000000 0.000000 0.000000 0.651751 -1.377830 -14.479542 15.119875 -1.096998 -66.664907 28.822961 -13.581546 7.809616 -0.000003 -0.000000 -0.000000 0.693341 1.865735 19.210510 -4.379303 0.638708 60.523003 10.592677 10.446120 -2.046245 0.000000 -0.000000 0.000000 -28.388191 2.820049 -8.650575 1.977417 14.904632 0.984886 -5.989123 0.060050 0.924389 -9.635782 0.000006 -0.000000 0.000002 0.000000 0.000000 -2.065463 -4.124062 5.737345 28.490563 -7.321258 -0.219971 -25.454995 1.249989 -8.557544 -3.041652 -0.451168 5.235744 0.000000 0.000000 0.000000 
